<mxfile host="Electron" modified="2023-05-24T18:45:37.331Z" agent="Mozilla/5.0 (Macintosh; Intel Mac OS X 10_15_7) AppleWebKit/537.36 (KHTML, like Gecko) draw.io/21.2.8 Chrome/112.0.5615.165 Electron/24.2.0 Safari/537.36" etag="toeBRAqWBskoi10op8Ul" version="21.2.8" type="device">
  <diagram name="Page-1" id="hagG0mQoI-y82EzhaQtB">
    <mxGraphModel dx="1434" dy="794" grid="0" gridSize="10" guides="1" tooltips="1" connect="1" arrows="1" fold="1" page="1" pageScale="1" pageWidth="1654" pageHeight="1169" math="0" shadow="0">
      <root>
        <mxCell id="0" />
        <mxCell id="1" parent="0" />
        <mxCell id="kKQXf41IfZRwiArYyt9g-10" style="edgeStyle=orthogonalEdgeStyle;rounded=0;orthogonalLoop=1;jettySize=auto;html=1;exitX=0.5;exitY=1;exitDx=0;exitDy=0;entryX=0.75;entryY=0;entryDx=0;entryDy=0;" parent="1" source="kKQXf41IfZRwiArYyt9g-3" target="kKQXf41IfZRwiArYyt9g-8" edge="1">
          <mxGeometry relative="1" as="geometry" />
        </mxCell>
        <mxCell id="kKQXf41IfZRwiArYyt9g-15" style="edgeStyle=orthogonalEdgeStyle;rounded=0;orthogonalLoop=1;jettySize=auto;html=1;exitX=0.5;exitY=1;exitDx=0;exitDy=0;entryX=0.25;entryY=0;entryDx=0;entryDy=0;" parent="1" source="kKQXf41IfZRwiArYyt9g-3" target="kKQXf41IfZRwiArYyt9g-11" edge="1">
          <mxGeometry relative="1" as="geometry" />
        </mxCell>
        <mxCell id="kKQXf41IfZRwiArYyt9g-3" value="&lt;font style=&quot;font-size: 12px;&quot;&gt;&lt;b&gt;Init Image Transformation&lt;/b&gt;&lt;/font&gt;" style="rounded=1;whiteSpace=wrap;html=1;" parent="1" vertex="1">
          <mxGeometry x="624" y="331" width="171" height="49" as="geometry" />
        </mxCell>
        <mxCell id="kKQXf41IfZRwiArYyt9g-14" style="edgeStyle=orthogonalEdgeStyle;rounded=0;orthogonalLoop=1;jettySize=auto;html=1;exitX=0.5;exitY=1;exitDx=0;exitDy=0;entryX=0.75;entryY=0;entryDx=0;entryDy=0;" parent="1" source="kKQXf41IfZRwiArYyt9g-4" target="kKQXf41IfZRwiArYyt9g-11" edge="1">
          <mxGeometry relative="1" as="geometry" />
        </mxCell>
        <mxCell id="kKQXf41IfZRwiArYyt9g-4" value="&lt;b&gt;Convert to Image Directory&lt;/b&gt;" style="rounded=1;whiteSpace=wrap;html=1;" parent="1" vertex="1">
          <mxGeometry x="814" y="331" width="171" height="49" as="geometry" />
        </mxCell>
        <mxCell id="kKQXf41IfZRwiArYyt9g-9" style="edgeStyle=orthogonalEdgeStyle;rounded=0;orthogonalLoop=1;jettySize=auto;html=1;exitX=0.5;exitY=1;exitDx=0;exitDy=0;entryX=0.25;entryY=0;entryDx=0;entryDy=0;" parent="1" source="kKQXf41IfZRwiArYyt9g-5" target="kKQXf41IfZRwiArYyt9g-8" edge="1">
          <mxGeometry relative="1" as="geometry" />
        </mxCell>
        <mxCell id="kKQXf41IfZRwiArYyt9g-5" value="&lt;b&gt;Convert to Image Directory&lt;/b&gt;" style="rounded=1;whiteSpace=wrap;html=1;" parent="1" vertex="1">
          <mxGeometry x="434" y="331" width="171" height="49" as="geometry" />
        </mxCell>
        <mxCell id="kKQXf41IfZRwiArYyt9g-17" style="edgeStyle=orthogonalEdgeStyle;rounded=0;orthogonalLoop=1;jettySize=auto;html=1;exitX=0.5;exitY=1;exitDx=0;exitDy=0;entryX=0.25;entryY=0;entryDx=0;entryDy=0;" parent="1" source="kKQXf41IfZRwiArYyt9g-8" target="kKQXf41IfZRwiArYyt9g-16" edge="1">
          <mxGeometry relative="1" as="geometry" />
        </mxCell>
        <mxCell id="kKQXf41IfZRwiArYyt9g-8" value="&lt;b&gt;Apply Image Transformation&lt;/b&gt;" style="rounded=1;whiteSpace=wrap;html=1;" parent="1" vertex="1">
          <mxGeometry x="520" y="470" width="171" height="49" as="geometry" />
        </mxCell>
        <mxCell id="kKQXf41IfZRwiArYyt9g-18" style="edgeStyle=orthogonalEdgeStyle;rounded=0;orthogonalLoop=1;jettySize=auto;html=1;exitX=0.5;exitY=1;exitDx=0;exitDy=0;entryX=0.75;entryY=0;entryDx=0;entryDy=0;" parent="1" source="kKQXf41IfZRwiArYyt9g-11" target="kKQXf41IfZRwiArYyt9g-16" edge="1">
          <mxGeometry relative="1" as="geometry" />
        </mxCell>
        <mxCell id="kKQXf41IfZRwiArYyt9g-11" value="&lt;b&gt;Apply Image Transformation&lt;/b&gt;" style="rounded=1;whiteSpace=wrap;html=1;" parent="1" vertex="1">
          <mxGeometry x="727" y="470" width="171" height="49" as="geometry" />
        </mxCell>
        <mxCell id="kKQXf41IfZRwiArYyt9g-16" value="&lt;b&gt;Train Image Classification&lt;/b&gt;" style="rounded=1;whiteSpace=wrap;html=1;" parent="1" vertex="1">
          <mxGeometry x="628" y="585" width="171" height="49" as="geometry" />
        </mxCell>
        <mxCell id="x6GR6EFeTV917PPTc_19-17" style="edgeStyle=orthogonalEdgeStyle;rounded=0;orthogonalLoop=1;jettySize=auto;html=1;exitX=0.5;exitY=1;exitDx=0;exitDy=0;" edge="1" parent="1" source="x6GR6EFeTV917PPTc_19-8" target="kKQXf41IfZRwiArYyt9g-5">
          <mxGeometry relative="1" as="geometry" />
        </mxCell>
        <mxCell id="x6GR6EFeTV917PPTc_19-8" value="" style="whiteSpace=wrap;html=1;aspect=fixed;" vertex="1" parent="1">
          <mxGeometry x="464" y="165" width="111" height="111" as="geometry" />
        </mxCell>
        <mxCell id="x6GR6EFeTV917PPTc_19-11" value="" style="image;aspect=fixed;html=1;points=[];align=center;fontSize=12;image=img/lib/azure2/general/Folder_Blank.svg;" vertex="1" parent="1">
          <mxGeometry x="470" y="178.5" width="23.41" height="19" as="geometry" />
        </mxCell>
        <mxCell id="x6GR6EFeTV917PPTc_19-12" value="&lt;b&gt;Train&lt;/b&gt;" style="text;html=1;align=center;verticalAlign=middle;resizable=0;points=[];autosize=1;strokeColor=none;fillColor=none;" vertex="1" parent="1">
          <mxGeometry x="490.41" y="175" width="47" height="26" as="geometry" />
        </mxCell>
        <mxCell id="x6GR6EFeTV917PPTc_19-13" value="" style="image;aspect=fixed;html=1;points=[];align=center;fontSize=12;image=img/lib/azure2/general/Folder_Blank.svg;" vertex="1" parent="1">
          <mxGeometry x="498" y="209.5" width="23.41" height="19" as="geometry" />
        </mxCell>
        <mxCell id="x6GR6EFeTV917PPTc_19-14" value="&lt;b&gt;dogs&lt;/b&gt;" style="text;html=1;align=center;verticalAlign=middle;resizable=0;points=[];autosize=1;strokeColor=none;fillColor=none;" vertex="1" parent="1">
          <mxGeometry x="518.4100000000001" y="206" width="47" height="26" as="geometry" />
        </mxCell>
        <mxCell id="x6GR6EFeTV917PPTc_19-15" value="" style="image;aspect=fixed;html=1;points=[];align=center;fontSize=12;image=img/lib/azure2/general/Folder_Blank.svg;" vertex="1" parent="1">
          <mxGeometry x="498" y="242" width="23.41" height="19" as="geometry" />
        </mxCell>
        <mxCell id="x6GR6EFeTV917PPTc_19-16" value="&lt;b&gt;cats&lt;/b&gt;" style="text;html=1;align=center;verticalAlign=middle;resizable=0;points=[];autosize=1;strokeColor=none;fillColor=none;" vertex="1" parent="1">
          <mxGeometry x="520.4100000000001" y="238.5" width="42" height="26" as="geometry" />
        </mxCell>
        <mxCell id="x6GR6EFeTV917PPTc_19-25" style="edgeStyle=orthogonalEdgeStyle;rounded=0;orthogonalLoop=1;jettySize=auto;html=1;exitX=0.5;exitY=1;exitDx=0;exitDy=0;" edge="1" parent="1" source="x6GR6EFeTV917PPTc_19-18" target="kKQXf41IfZRwiArYyt9g-4">
          <mxGeometry relative="1" as="geometry" />
        </mxCell>
        <mxCell id="x6GR6EFeTV917PPTc_19-18" value="" style="whiteSpace=wrap;html=1;aspect=fixed;" vertex="1" parent="1">
          <mxGeometry x="844" y="172" width="111" height="111" as="geometry" />
        </mxCell>
        <mxCell id="x6GR6EFeTV917PPTc_19-19" value="" style="image;aspect=fixed;html=1;points=[];align=center;fontSize=12;image=img/lib/azure2/general/Folder_Blank.svg;" vertex="1" parent="1">
          <mxGeometry x="850" y="185.5" width="23.41" height="19" as="geometry" />
        </mxCell>
        <mxCell id="x6GR6EFeTV917PPTc_19-20" value="&lt;b&gt;Test&lt;/b&gt;" style="text;html=1;align=center;verticalAlign=middle;resizable=0;points=[];autosize=1;strokeColor=none;fillColor=none;" vertex="1" parent="1">
          <mxGeometry x="872.4100000000001" y="182" width="42" height="26" as="geometry" />
        </mxCell>
        <mxCell id="x6GR6EFeTV917PPTc_19-21" value="" style="image;aspect=fixed;html=1;points=[];align=center;fontSize=12;image=img/lib/azure2/general/Folder_Blank.svg;" vertex="1" parent="1">
          <mxGeometry x="878" y="216.5" width="23.41" height="19" as="geometry" />
        </mxCell>
        <mxCell id="x6GR6EFeTV917PPTc_19-22" value="&lt;b&gt;dogs&lt;/b&gt;" style="text;html=1;align=center;verticalAlign=middle;resizable=0;points=[];autosize=1;strokeColor=none;fillColor=none;" vertex="1" parent="1">
          <mxGeometry x="898.4100000000001" y="213" width="47" height="26" as="geometry" />
        </mxCell>
        <mxCell id="x6GR6EFeTV917PPTc_19-23" value="" style="image;aspect=fixed;html=1;points=[];align=center;fontSize=12;image=img/lib/azure2/general/Folder_Blank.svg;" vertex="1" parent="1">
          <mxGeometry x="878" y="249" width="23.41" height="19" as="geometry" />
        </mxCell>
        <mxCell id="x6GR6EFeTV917PPTc_19-24" value="&lt;b&gt;cats&lt;/b&gt;" style="text;html=1;align=center;verticalAlign=middle;resizable=0;points=[];autosize=1;strokeColor=none;fillColor=none;" vertex="1" parent="1">
          <mxGeometry x="900.4100000000001" y="245.5" width="42" height="26" as="geometry" />
        </mxCell>
      </root>
    </mxGraphModel>
  </diagram>
</mxfile>
